<svg width="944" height="218" viewBox="0 0 944 218" fill="none" xmlns="http://www.w3.org/2000/svg">
<path fill-rule="evenodd" clip-rule="evenodd" d="M379.64 218C398.418 218 413.64 202.778 413.64 184V34C413.64 15.2223 398.418 2.57517e-05 379.64 2.41101e-05L103.852 0C94.173 -8.46182e-07 84.9526 4.1254 78.5023 11.3421L8.65009 89.4936C-3.20117 102.753 -2.83233 122.905 9.49619 135.722L78.6076 207.57C85.0176 214.234 93.8651 218 103.111 218L379.64 218ZM82.1399 90C71.9227 90 63.6399 98.2827 63.6399 108.5C63.6399 118.717 71.9227 127 82.1399 127C92.3572 127 100.64 118.717 100.64 108.5C100.64 98.2827 92.3572 90 82.1399 90Z" fill="#1B1818"/>
<path d="M142.865 174V41.6562H177.831C185.15 41.6562 190.94 43.2855 195.201 46.5439C199.512 49.8024 202.595 54.4394 204.45 60.4551C206.305 66.4707 207.232 73.6393 207.232 81.9609C207.232 89.9818 206.455 96.9749 204.901 102.94C203.347 108.856 200.565 113.443 196.555 116.701C192.594 119.96 186.955 121.589 179.636 121.589H168.883V174H142.865ZM168.883 97.8271H170.387C175.299 97.8271 178.307 96.4486 179.41 93.6914C180.513 90.9342 181.064 86.8737 181.064 81.5098C181.064 76.4967 180.513 72.6367 179.41 69.9297C178.357 67.1725 175.826 65.7939 171.815 65.7939H168.883V97.8271Z" fill="white"/>
<path d="M247.236 175.203C236.659 175.203 228.563 172.02 222.948 165.653C217.384 159.237 214.602 149.988 214.602 137.906V75.043C214.602 63.7135 217.359 55.1162 222.873 49.251C228.438 43.3857 236.559 40.4531 247.236 40.4531C257.914 40.4531 266.01 43.3857 271.524 49.251C277.089 55.1162 279.871 63.7135 279.871 75.043V137.906C279.871 149.988 277.064 159.237 271.449 165.653C265.885 172.02 257.814 175.203 247.236 175.203ZM247.462 150.84C251.472 150.84 253.478 146.955 253.478 139.185V74.5918C253.478 68.0749 251.522 64.8164 247.612 64.8164C243.201 64.8164 240.995 68.1501 240.995 74.8174V139.335C240.995 143.446 241.496 146.403 242.499 148.208C243.502 149.963 245.156 150.84 247.462 150.84Z" fill="white"/>
<path d="M290.549 174V41.6562H325.515C332.834 41.6562 338.624 43.2855 342.885 46.5439C347.196 49.8024 350.279 54.4394 352.134 60.4551C353.989 66.4707 354.916 73.6393 354.916 81.9609C354.916 89.9818 354.139 96.9749 352.585 102.94C351.031 108.856 348.249 113.443 344.238 116.701C340.278 119.96 334.638 121.589 327.319 121.589H316.566V174H290.549ZM316.566 97.8271H318.07C322.983 97.8271 325.991 96.4486 327.094 93.6914C328.197 90.9342 328.748 86.8737 328.748 81.5098C328.748 76.4967 328.197 72.6367 327.094 69.9297C326.041 67.1725 323.509 65.7939 319.499 65.7939H316.566V97.8271Z" fill="white"/>
<path d="M476.015 184.298C465.682 184.298 457.35 181.079 451.02 174.641C444.745 168.203 441.607 159.195 441.607 147.617V81.7212C441.607 67.8711 444.339 57.2671 449.803 49.9093C455.321 42.5514 464.275 38.8725 476.665 38.8725C483.427 38.8725 489.433 40.1168 494.681 42.6055C499.983 45.0942 504.148 48.8272 507.178 53.8046C510.208 58.7279 511.723 64.9496 511.723 72.4698V97.1402H483.319V76.0405C483.319 71.7664 482.778 68.899 481.696 67.4383C480.614 65.9234 478.937 65.166 476.665 65.166C474.014 65.166 472.228 66.1398 471.309 68.0875C470.389 69.9811 469.929 72.5239 469.929 75.7159V147.212C469.929 151.161 470.497 153.947 471.633 155.57C472.823 157.193 474.501 158.005 476.665 158.005C479.099 158.005 480.803 157.004 481.777 155.002C482.805 153 483.319 150.404 483.319 147.212V121.486H512.047V148.51C512.047 161.062 508.882 170.178 502.552 175.859C496.223 181.485 487.377 184.298 476.015 184.298Z" fill="#1B1818"/>
<path d="M554.653 184.298C542.75 184.298 533.986 180.971 528.359 174.317C522.732 167.608 519.919 157.761 519.919 144.777V40.1709H547.673V143.641C547.673 146.021 547.809 148.321 548.079 150.539C548.35 152.703 548.972 154.488 549.946 155.895C550.92 157.302 552.489 158.005 554.653 158.005C556.871 158.005 558.467 157.329 559.441 155.976C560.414 154.569 561.01 152.757 561.226 150.539C561.497 148.321 561.632 146.021 561.632 143.641V40.1709H589.386V144.777C589.386 157.761 586.573 167.608 580.946 174.317C575.32 180.971 566.555 184.298 554.653 184.298Z" fill="#1B1818"/>
<path d="M600.342 183V40.1709H628.908V158.654H658.285V183H600.342Z" fill="#1B1818"/>
<path d="M673.46 183V67.6006H656.5V40.1709H718.987V67.6006H702.026V183H673.46Z" fill="#1B1818"/>
<path d="M759.969 184.298C748.067 184.298 739.303 180.971 733.676 174.317C728.049 167.608 725.236 157.761 725.236 144.777V40.1709H752.99V143.641C752.99 146.021 753.126 148.321 753.396 150.539C753.667 152.703 754.289 154.488 755.263 155.895C756.236 157.302 757.805 158.005 759.969 158.005C762.188 158.005 763.784 157.329 764.757 155.976C765.731 154.569 766.326 152.757 766.543 150.539C766.813 148.321 766.949 146.021 766.949 143.641V40.1709H794.703V144.777C794.703 157.761 791.89 167.608 786.263 174.317C780.636 180.971 771.872 184.298 759.969 184.298Z" fill="#1B1818"/>
<path d="M805.659 183V40.1709H849.481C856.785 40.1709 862.303 41.8481 866.036 45.2024C869.769 48.5026 872.258 53.1554 873.502 59.1607C874.801 65.1119 875.45 72.1181 875.45 80.1793C875.45 87.97 874.449 94.1917 872.447 98.8444C870.5 103.497 866.794 106.716 861.329 108.502C865.82 109.421 868.958 111.667 870.743 115.237C872.583 118.754 873.502 123.326 873.502 128.952V183H845.342V127.086C845.342 122.92 844.477 120.35 842.745 119.376C841.068 118.348 838.336 117.834 834.549 117.834V183H805.659ZM834.711 93.0826H841.609C845.559 93.0826 847.533 88.7815 847.533 80.1793C847.533 74.6068 847.101 70.9549 846.235 69.2236C845.369 67.4924 843.746 66.6267 841.366 66.6267H834.711V93.0826Z" fill="#1B1818"/>
<path d="M884.864 183V40.1709H941.995V67.7629H913.916V95.5983H940.859V122.46H913.916V155.165H943.862V183H884.864Z" fill="#1B1818"/>
</svg>
